<?xml version="1.0" encoding="utf-8"?>
<svg xmlns="http://www.w3.org/2000/svg" viewBox="0 0 24 24" width="96" height="96">
  <path d="M12 3C7.636719 3 4 6.074219 4 10C4 11.542969 4.722656 12.851563 5.6875 14L2 14L2 16L9 16L9 14.34375L8.53125 14.03125C6.976563 13.082031 6 11.601563 6 10C6 7.328125 8.5625 5 12 5C15.4375 5 18 7.328125 18 10C18 11.601563 17.023438 13.082031 15.46875 14.03125L15 14.34375L15 16L22 16L22 14L18.3125 14C19.277344 12.851563 20 11.542969 20 10C20 6.074219 16.363281 3 12 3 Z M 2 19L2 21L22 21L22 19Z" fill="#E0E0E0" />
</svg>