<?xml version="1.0" encoding="utf-8"?>
<svg xmlns="http://www.w3.org/2000/svg" viewBox="0 0 24 24" width="96" height="96">
  <path d="M7 2C5.207031 2 3.863281 2.972656 3.09375 4.03125C2.324219 5.089844 2 6.132813 2 7L4 7C4 6.867188 4.214844 5.910156 4.71875 5.21875C5.222656 4.527344 5.894531 4 7 4C7.949219 4 8.5 4.324219 9.0625 5.125C9.625 5.925781 10.078125 7.265625 10.375 8.9375C10.824219 11.445313 10.964844 14.71875 11 18.3125C11 18.398438 11 18.476563 11 18.5625C11.011719 19.683594 11 20.835938 11 22L13 22C13 20.75 13.007813 19.519531 13 18.3125C13.039063 14.988281 13.1875 11.785156 13.625 9.25C13.925781 7.515625 14.359375 6.128906 14.9375 5.25C15.515625 4.371094 16.078125 4 17 4C18.105469 4 18.777344 4.527344 19.28125 5.21875C19.785156 5.910156 20 6.867188 20 7L22 7C22 6.132813 21.675781 5.089844 20.90625 4.03125C20.136719 2.972656 18.792969 2 17 2C15.421875 2 14.109375 2.863281 13.28125 4.125C12.738281 4.953125 12.335938 5.949219 12.03125 7.0625C11.722656 5.886719 11.316406 4.851563 10.71875 4C9.875 2.800781 8.550781 2 7 2Z" fill="#E0E0E0" />
</svg>