<?xml version="1.0" encoding="utf-8"?>
<svg xmlns="http://www.w3.org/2000/svg" viewBox="0 0 24 24" width="96" height="96">
  <path d="M11.798828 2C8.3521799 2 5.2306488 3.2112673 3.0273438 5.2011719L4.3691406 6.6855469C6.1718356 5.0574515 8.8234765 4 11.798828 4C13.0456 4 14.229242 4.1955116 15.324219 4.53125C14.864286 4.7696892 14.450715 5.0654552 14.126953 5.4296875C13.360347 6.2921194 13 7.4027779 13 8.5C13 9.5972221 13.360347 10.707881 14.126953 11.570312C14.893559 12.432745 16.083334 13 17.5 13C18.916666 13 20.106441 12.432744 20.873047 11.570312C21.639653 10.707882 22 9.5972221 22 8.5C22 7.4027779 21.639653 6.2921194 20.873047 5.4296875C20.60221 5.1249962 20.262349 4.875258 19.894531 4.65625C17.748412 2.9988967 14.910623 2 11.798828 2 z M 17.5 6C17.979049 6 18.357554 6.0879357 18.669922 6.2324219C18.816179 6.3450764 18.966335 6.454898 19.103516 6.5742188L19.136719 6.5351562C19.220296 6.6060078 19.30491 6.6767641 19.376953 6.7578125C19.777013 7.2078806 20 7.8472221 20 8.5C20 9.1527779 19.777013 9.7921189 19.376953 10.242188C18.976893 10.692255 18.416666 11 17.5 11C16.583334 11 16.023107 10.692256 15.623047 10.242188C15.222987 9.7921189 15 9.1527779 15 8.5C15 7.8472221 15.222987 7.2078806 15.623047 6.7578125C16.023107 6.3077444 16.583334 6 17.5 6 z M 6.5 11C5.0833337 11 3.8935589 11.567256 3.1269531 12.429688C2.3603473 13.292118 2 14.402778 2 15.5C2 16.597222 2.3603473 17.707881 3.1269531 18.570312C3.3977897 18.875004 3.7376508 19.124742 4.1054688 19.34375C6.2515874 21.001103 9.0893774 22 12.201172 22C15.64782 22 18.769351 20.788733 20.972656 18.798828L19.630859 17.314453C17.828164 18.942549 15.176524 20 12.201172 20C10.9544 20 9.7707576 19.804488 8.6757812 19.46875C9.1357141 19.230311 9.549285 18.934545 9.8730469 18.570312C10.639653 17.707881 11 16.597222 11 15.5C11 14.402778 10.639653 13.292119 9.8730469 12.429688C9.1064411 11.567255 7.9166663 11 6.5 11 z M 6.5 13C7.4166661 13 7.9768928 13.307744 8.3769531 13.757812C8.7770135 14.207882 9 14.847222 9 15.5C9 16.152778 8.7770135 16.792119 8.3769531 17.242188C7.9768928 17.692256 7.4166661 18 6.5 18C6.0209509 18 5.6424463 17.912064 5.3300781 17.767578C5.1838206 17.654924 5.0336654 17.545102 4.8964844 17.425781L4.8632812 17.464844C4.7797041 17.393992 4.6950898 17.323236 4.6230469 17.242188C4.2229865 16.792119 4 16.152778 4 15.5C4 14.847222 4.2229865 14.207881 4.6230469 13.757812C5.0231072 13.307745 5.5833339 13 6.5 13 z" fill="#E0E0E0" />
</svg>