<?xml version="1.0" encoding="utf-8"?>
<svg xmlns="http://www.w3.org/2000/svg" viewBox="0 0 24 24" width="96" height="96">
  <path d="M18.375 2C18.375 2 15.332031 5.226563 15.03125 11L8.96875 11C8.625 5.246094 5.625 2.09375 5.625 2.09375L4.1875 3.5C4.1875 3.5 6.644531 5.984375 6.96875 11L5 11L5 13L6.96875 13C6.691406 18.132813 4.1875 20.59375 4.1875 20.59375L5.59375 22C5.59375 22 8.675781 18.859375 8.96875 13L15.03125 13C15.382813 18.664063 18.375 21.875 18.375 21.875L19.84375 20.5C19.84375 20.5 17.359375 17.941406 17.03125 13L19 13L19 11L17.03125 11C17.308594 5.945313 19.8125 3.40625 19.8125 3.40625Z" fill="#E0E0E0" />
</svg>