<?xml version="1.0" encoding="utf-8"?>
<svg xmlns="http://www.w3.org/2000/svg" viewBox="0 0 24 24" width="96" height="96">
  <path d="M9 2C8.238281 2 7.921875 2.351563 7.53125 2.6875C7.140625 3.023438 6.765625 3.433594 6.40625 3.90625C6.34375 3.988281 6.28125 4.074219 6.21875 4.15625C6.089844 3.90625 5.949219 3.667969 5.8125 3.46875C5.214844 2.601563 4.53125 2.15625 4.53125 2.15625L3.46875 3.84375C3.46875 3.84375 3.785156 4.042969 4.1875 4.625C4.589844 5.207031 5 6.109375 5 7.5L5 17L7 17L7 7.5C7 7.359375 6.976563 7.226563 6.96875 7.09375L7 7.09375C7 6.917969 7.421875 5.882813 8 5.125C8.289063 4.746094 8.597656 4.402344 8.84375 4.1875C8.957031 4.089844 8.847656 4.121094 8.90625 4.09375C8.972656 4.125 9.039063 4.136719 9.125 4.21875C9.378906 4.453125 9.703125 4.816406 10 5.21875C10.296875 5.621094 10.5625 6.066406 10.75 6.4375C10.9375 6.808594 11 7.152344 11 7.09375L11 13C11 14.234375 11.425781 15.457031 12.28125 16.40625C12.683594 16.855469 13.199219 17.226563 13.78125 17.5C13.285156 18.957031 11.949219 20 10.3125 20L9 20L9 22L10.3125 22C12.867188 22 14.96875 20.265625 15.6875 17.9375C15.800781 17.945313 15.886719 18 16 18L17.8125 18C19.914063 18 21.738281 16.421875 22 14.3125C22 14.292969 22 14.269531 22 14.25C22.132813 11.886719 20.164063 9.773438 17.75 10C17.726563 10.003906 17.710938 9.996094 17.6875 10L17.6875 10.03125C15.535156 10.207031 14 12.109375 14 14.1875L14 15.25C13.933594 15.191406 13.839844 15.160156 13.78125 15.09375C13.285156 14.542969 13 13.765625 13 13L13 7.09375C13 6.484375 12.78125 6.03125 12.53125 5.53125C12.28125 5.03125 11.949219 4.515625 11.59375 4.03125C11.238281 3.546875 10.886719 3.109375 10.5 2.75C10.113281 2.390625 9.824219 2 9 2 Z M 17.875 12C17.886719 12 17.894531 12 17.90625 12C19.039063 11.875 19.992188 12.910156 19.96875 14.09375C19.8125 15.164063 18.898438 16 17.8125 16L16 16L16 14.1875C16 13.085938 16.867188 12.0625 17.875 12Z" fill="#E0E0E0" />
</svg>