<?xml version="1.0" encoding="utf-8"?>
<svg xmlns="http://www.w3.org/2000/svg" viewBox="0 0 24 24" width="96" height="96">
  <path d="M13.5 2C9.945313 2 7 4.945313 7 8.5C7 9.496094 7.277344 10.324219 7.59375 11.0625C7.402344 11.035156 7.199219 11 7 11C4.800781 11 3 12.800781 3 15C3 17.199219 4.800781 19 7 19C9.199219 19 11 17.199219 11 15C11 13.445313 10.40625 12.242188 9.90625 11.25C9.40625 10.257813 9 9.484375 9 8.5C9 6.054688 11.054688 4 13.5 4C15.945313 4 18 6.054688 18 8.5C18 9.554688 17.207031 10.75 16.1875 12.25C15.167969 13.75 14 15.582031 14 18C14 20.210938 15.789063 22 18 22C20.210938 22 22 20.210938 22 18L20 18C20 19.191406 19.191406 20 18 20C16.808594 20 16 19.191406 16 18C16 16.21875 16.832031 14.824219 17.8125 13.375C18.792969 11.925781 20 10.445313 20 8.5C20 4.945313 17.054688 2 13.5 2 Z M 7 13C7.976563 13 8.785156 13.675781 8.96875 14.59375C8.984375 14.726563 9 14.859375 9 15C9 16.117188 8.117188 17 7 17C5.882813 17 5 16.117188 5 15C5 13.882813 5.882813 13 7 13Z" fill="#E0E0E0" />
</svg>