<?xml version="1.0" encoding="utf-8"?>
<svg xmlns="http://www.w3.org/2000/svg" viewBox="0 0 24 24" width="96" height="96">
  <path d="M3 2L3 4C4.527344 4 5.207031 4.316406 5.625 4.6875C6.042969 5.058594 6.273438 5.59375 6.5625 6.34375C6.851563 7.09375 7.179688 8.058594 8.03125 8.8125C8.121094 8.890625 8.210938 8.988281 8.3125 9.0625C6.328125 10.300781 5 12.5 5 15C5 18.855469 8.144531 22 12 22C15.855469 22 19 18.855469 19 15C19 12.5 17.671875 10.300781 15.6875 9.0625C15.789063 8.988281 15.878906 8.890625 15.96875 8.8125C16.820313 8.058594 17.148438 7.09375 17.4375 6.34375C17.726563 5.59375 17.957031 5.058594 18.375 4.6875C18.792969 4.316406 19.472656 4 21 4L21 2C19.175781 2 17.882813 2.433594 17.03125 3.1875C16.179688 3.941406 15.851563 4.90625 15.5625 5.65625C15.273438 6.40625 15.042969 6.941406 14.625 7.3125C14.207031 7.683594 13.527344 8 12 8C10.472656 8 9.792969 7.683594 9.375 7.3125C8.957031 6.941406 8.726563 6.40625 8.4375 5.65625C8.148438 4.90625 7.820313 3.941406 6.96875 3.1875C6.117188 2.433594 4.824219 2 3 2 Z M 12 10C14.773438 10 17 12.226563 17 15C17 17.773438 14.773438 20 12 20C9.226563 20 7 17.773438 7 15C7 12.226563 9.226563 10 12 10Z" fill="#E0E0E0" />
</svg>